<svg xmlns="http://www.w3.org/2000/svg" width="640" height="360" viewBox="0 0 640 360" role="img" aria-labelledby="title desc">
<title id="title">SiLU / Swish graph</title>
<desc id="desc">Graph of SiLU / Swish. y = x * sigmoid(x)</desc>
<rect width="100%" height="100%" fill="#ffffff"/>
<rect x="14" y="14" width="612" height="332" rx="14" fill="#f8fafc" stroke="#cbd5e1"/>
<text x="32" y="42" font-family="Arial, sans-serif" font-size="22" font-weight="700" fill="#0f172a">SiLU / Swish</text>
<text x="32" y="63" font-family="Arial, sans-serif" font-size="13" fill="#475569">y = x * sigmoid(x)</text>
<line x1="72" y1="302.00" x2="612" y2="302.00" stroke="#e2e8f0" stroke-width="1"/>
<line x1="72" y1="186.00" x2="612" y2="186.00" stroke="#e2e8f0" stroke-width="1"/>
<line x1="72" y1="268.86" x2="612" y2="268.86" stroke="#e2e8f0" stroke-width="1"/>
<line x1="72" y1="70.00" x2="612" y2="70.00" stroke="#e2e8f0" stroke-width="1"/>
<line x1="72.00" y1="70" x2="72.00" y2="302" stroke="#e2e8f0" stroke-width="1"/>
<line x1="207.00" y1="70" x2="207.00" y2="302" stroke="#e2e8f0" stroke-width="1"/>
<line x1="342.00" y1="70" x2="342.00" y2="302" stroke="#e2e8f0" stroke-width="1"/>
<line x1="477.00" y1="70" x2="477.00" y2="302" stroke="#e2e8f0" stroke-width="1"/>
<line x1="612.00" y1="70" x2="612.00" y2="302" stroke="#e2e8f0" stroke-width="1"/>
<line x1="72" y1="268.86" x2="612" y2="268.86" stroke="#64748b" stroke-width="1.4"/>
<line x1="342.00" y1="70" x2="342.00" y2="302" stroke="#64748b" stroke-width="1.4"/>
<polyline points="72.00,269.35 73.69,269.36 75.39,269.38 77.08,269.40 78.77,269.41 80.46,269.43 82.16,269.45 83.85,269.47 85.54,269.49 87.24,269.51 88.93,269.53 90.62,269.55 92.31,269.57 94.01,269.59 95.70,269.62 97.39,269.64 99.08,269.66 100.78,269.69 102.47,269.71 104.16,269.74 105.86,269.77 107.55,269.80 109.24,269.82 110.93,269.85 112.63,269.88 114.32,269.91 116.01,269.95 117.71,269.98 119.40,270.01 121.09,270.05 122.78,270.08 124.48,270.12 126.17,270.16 127.86,270.20 129.55,270.24 131.25,270.28 132.94,270.32 134.63,270.36 136.33,270.41 138.02,270.45 139.71,270.50 141.40,270.55 143.10,270.60 144.79,270.65 146.48,270.70 148.18,270.75 149.87,270.81 151.56,270.87 153.25,270.92 154.95,270.98 156.64,271.04 158.33,271.10 160.03,271.17 161.72,271.23 163.41,271.30 165.10,271.36 166.80,271.43 168.49,271.50 170.18,271.58 171.87,271.65 173.57,271.73 175.26,271.80 176.95,271.88 178.65,271.96 180.34,272.05 182.03,272.13 183.72,272.22 185.42,272.31 187.11,272.39 188.80,272.49 190.50,272.58 192.19,272.67 193.88,272.77 195.57,272.87 197.27,272.97 198.96,273.07 200.65,273.17 202.34,273.28 204.04,273.38 205.73,273.49 207.42,273.60 209.12,273.71 210.81,273.82 212.50,273.94 214.19,274.05 215.89,274.17 217.58,274.29 219.27,274.41 220.97,274.53 222.66,274.65 224.35,274.77 226.04,274.89 227.74,275.01 229.43,275.14 231.12,275.26 232.82,275.39 234.51,275.51 236.20,275.63 237.89,275.76 239.59,275.88 241.28,276.01 242.97,276.13 244.66,276.25 246.36,276.37 248.05,276.49 249.74,276.61 251.44,276.72 253.13,276.83 254.82,276.94 256.51,277.05 258.21,277.16 259.90,277.26 261.59,277.35 263.29,277.45 264.98,277.53 266.67,277.62 268.36,277.70 270.06,277.77 271.75,277.83 273.44,277.89 275.13,277.95 276.83,277.99 278.52,278.03 280.21,278.06 281.91,278.07 283.60,278.08 285.29,278.09 286.98,278.07 288.68,278.05 290.37,278.02 292.06,277.98 293.76,277.92 295.45,277.85 297.14,277.76 298.83,277.66 300.53,277.55 302.22,277.42 303.91,277.28 305.61,277.12 307.30,276.94 308.99,276.74 310.68,276.53 312.38,276.30 314.07,276.05 315.76,275.78 317.45,275.49 319.15,275.18 320.84,274.85 322.53,274.50 324.23,274.13 325.92,273.73 327.61,273.32 329.30,272.88 331.00,272.42 332.69,271.93 334.38,271.43 336.08,270.90 337.77,270.34 339.46,269.77 341.15,269.17 342.85,268.54 344.54,267.90 346.23,267.23 347.92,266.53 349.62,265.82 351.31,265.08 353.00,264.31 354.70,263.53 356.39,262.72 358.08,261.89 359.77,261.04 361.47,260.16 363.16,259.27 364.85,258.35 366.55,257.41 368.24,256.46 369.93,255.48 371.62,254.48 373.32,253.47 375.01,252.43 376.70,251.38 378.39,250.31 380.09,249.23 381.78,248.12 383.47,247.01 385.17,245.87 386.86,244.72 388.55,243.56 390.24,242.39 391.94,241.20 393.63,239.99 395.32,238.78 397.02,237.56 398.71,236.32 400.40,235.07 402.09,233.82 403.79,232.55 405.48,231.27 407.17,229.99 408.87,228.70 410.56,227.40 412.25,226.09 413.94,224.78 415.64,223.46 417.33,222.14 419.02,220.81 420.71,219.47 422.41,218.13 424.10,216.79 425.79,215.44 427.49,214.09 429.18,212.74 430.87,211.38 432.56,210.02 434.26,208.66 435.95,207.29 437.64,205.93 439.34,204.56 441.03,203.19 442.72,201.82 444.41,200.45 446.11,199.08 447.80,197.71 449.49,196.34 451.18,194.97 452.88,193.60 454.57,192.23 456.26,190.86 457.96,189.49 459.65,188.12 461.34,186.75 463.03,185.38 464.73,184.02 466.42,182.65 468.11,181.29 469.81,179.92 471.50,178.56 473.19,177.20 474.88,175.84 476.58,174.48 478.27,173.13 479.96,171.77 481.66,170.42 483.35,169.07 485.04,167.72 486.73,166.37 488.43,165.02 490.12,163.68 491.81,162.34 493.50,160.99 495.20,159.65 496.89,158.32 498.58,156.98 500.28,155.65 501.97,154.31 503.66,152.98 505.35,151.65 507.05,150.33 508.74,149.00 510.43,147.68 512.13,146.35 513.82,145.03 515.51,143.71 517.20,142.39 518.90,141.08 520.59,139.76 522.28,138.45 523.97,137.14 525.67,135.83 527.36,134.52 529.05,133.21 530.75,131.91 532.44,130.61 534.13,129.30 535.82,128.00 537.52,126.70 539.21,125.40 540.90,124.11 542.60,122.81 544.29,121.51 545.98,120.22 547.67,118.93 549.37,117.64 551.06,116.35 552.75,115.06 554.45,113.77 556.14,112.48 557.83,111.20 559.52,109.91 561.22,108.63 562.91,107.35 564.60,106.07 566.29,104.79 567.99,103.51 569.68,102.23 571.37,100.95 573.07,99.67 574.76,98.40 576.45,97.12 578.14,95.85 579.84,94.57 581.53,93.30 583.22,92.03 584.92,90.75 586.61,89.48 588.30,88.21 589.99,86.94 591.69,85.67 593.38,84.41 595.07,83.14 596.76,81.87 598.46,80.60 600.15,79.34 601.84,78.07 603.54,76.81 605.23,75.54 606.92,74.28 608.61,73.02 610.31,71.75 612.00,70.49" fill="none" stroke="#2563eb" stroke-width="3" stroke-linecap="round" stroke-linejoin="round"/>
<text x="72" y="330" font-family="Arial, sans-serif" font-size="12" fill="#475569">x: -6 to 6</text>
<text x="612" y="330" text-anchor="end" font-family="Arial, sans-serif" font-size="12" fill="#475569">y: -1 to 6</text>
</svg>