<svg xmlns="http://www.w3.org/2000/svg" width="640" height="360" viewBox="0 0 640 360" role="img" aria-labelledby="title desc">
<title id="title">Tanh graph</title>
<desc id="desc">Graph of Tanh. y = tanh(x)</desc>
<rect width="100%" height="100%" fill="#ffffff"/>
<rect x="14" y="14" width="612" height="332" rx="14" fill="#f8fafc" stroke="#cbd5e1"/>
<text x="32" y="42" font-family="Arial, sans-serif" font-size="22" font-weight="700" fill="#0f172a">Tanh</text>
<text x="32" y="63" font-family="Arial, sans-serif" font-size="13" fill="#475569">y = tanh(x)</text>
<line x1="72" y1="302.00" x2="612" y2="302.00" stroke="#e2e8f0" stroke-width="1"/>
<line x1="72" y1="186.00" x2="612" y2="186.00" stroke="#e2e8f0" stroke-width="1"/>
<line x1="72" y1="186.00" x2="612" y2="186.00" stroke="#e2e8f0" stroke-width="1"/>
<line x1="72" y1="70.00" x2="612" y2="70.00" stroke="#e2e8f0" stroke-width="1"/>
<line x1="72.00" y1="70" x2="72.00" y2="302" stroke="#e2e8f0" stroke-width="1"/>
<line x1="207.00" y1="70" x2="207.00" y2="302" stroke="#e2e8f0" stroke-width="1"/>
<line x1="342.00" y1="70" x2="342.00" y2="302" stroke="#e2e8f0" stroke-width="1"/>
<line x1="477.00" y1="70" x2="477.00" y2="302" stroke="#e2e8f0" stroke-width="1"/>
<line x1="612.00" y1="70" x2="612.00" y2="302" stroke="#e2e8f0" stroke-width="1"/>
<line x1="72" y1="186.00" x2="612" y2="186.00" stroke="#64748b" stroke-width="1.4"/>
<line x1="342.00" y1="70" x2="342.00" y2="302" stroke="#64748b" stroke-width="1.4"/>
<polyline points="72.00,282.67 73.69,282.67 75.39,282.67 77.08,282.67 78.77,282.67 80.46,282.66 82.16,282.66 83.85,282.66 85.54,282.66 87.24,282.66 88.93,282.66 90.62,282.66 92.31,282.66 94.01,282.66 95.70,282.66 97.39,282.66 99.08,282.66 100.78,282.66 102.47,282.66 104.16,282.66 105.86,282.66 107.55,282.66 109.24,282.66 110.93,282.66 112.63,282.66 114.32,282.66 116.01,282.66 117.71,282.66 119.40,282.66 121.09,282.66 122.78,282.66 124.48,282.65 126.17,282.65 127.86,282.65 129.55,282.65 131.25,282.65 132.94,282.65 134.63,282.65 136.33,282.65 138.02,282.64 139.71,282.64 141.40,282.64 143.10,282.64 144.79,282.64 146.48,282.63 148.18,282.63 149.87,282.63 151.56,282.63 153.25,282.62 154.95,282.62 156.64,282.62 158.33,282.61 160.03,282.61 161.72,282.60 163.41,282.60 165.10,282.59 166.80,282.59 168.49,282.58 170.18,282.57 171.87,282.57 173.57,282.56 175.26,282.55 176.95,282.54 178.65,282.53 180.34,282.52 182.03,282.51 183.72,282.50 185.42,282.48 187.11,282.47 188.80,282.45 190.50,282.44 192.19,282.42 193.88,282.40 195.57,282.38 197.27,282.36 198.96,282.33 200.65,282.31 202.34,282.28 204.04,282.25 205.73,282.21 207.42,282.18 209.12,282.14 210.81,282.10 212.50,282.06 214.19,282.01 215.89,281.96 217.58,281.90 219.27,281.84 220.97,281.78 222.66,281.71 224.35,281.64 226.04,281.56 227.74,281.47 229.43,281.38 231.12,281.28 232.82,281.17 234.51,281.05 236.20,280.93 237.89,280.79 239.59,280.65 241.28,280.49 242.97,280.32 244.66,280.14 246.36,279.95 248.05,279.74 249.74,279.52 251.44,279.27 253.13,279.01 254.82,278.73 256.51,278.43 258.21,278.11 259.90,277.76 261.59,277.39 263.29,276.99 264.98,276.56 266.67,276.10 268.36,275.61 270.06,275.08 271.75,274.51 273.44,273.90 275.13,273.25 276.83,272.55 278.52,271.80 280.21,271.01 281.91,270.15 283.60,269.25 285.29,268.27 286.98,267.24 288.68,266.14 290.37,264.96 292.06,263.72 293.76,262.39 295.45,260.98 297.14,259.49 298.83,257.91 300.53,256.24 302.22,254.48 303.91,252.62 305.61,250.66 307.30,248.60 308.99,246.44 310.68,244.17 312.38,241.80 314.07,239.32 315.76,236.74 317.45,234.05 319.15,231.26 320.84,228.38 322.53,225.39 324.23,222.31 325.92,219.15 327.61,215.90 329.30,212.57 331.00,209.18 332.69,205.72 334.38,202.21 336.08,198.65 337.77,195.06 339.46,191.45 341.15,187.82 342.85,184.18 344.54,180.55 346.23,176.94 347.92,173.35 349.62,169.79 351.31,166.28 353.00,162.82 354.70,159.43 356.39,156.10 358.08,152.85 359.77,149.69 361.47,146.61 363.16,143.62 364.85,140.74 366.55,137.95 368.24,135.26 369.93,132.68 371.62,130.20 373.32,127.83 375.01,125.56 376.70,123.40 378.39,121.34 380.09,119.38 381.78,117.52 383.47,115.76 385.17,114.09 386.86,112.51 388.55,111.02 390.24,109.61 391.94,108.28 393.63,107.04 395.32,105.86 397.02,104.76 398.71,103.73 400.40,102.75 402.09,101.85 403.79,100.99 405.48,100.20 407.17,99.45 408.87,98.75 410.56,98.10 412.25,97.49 413.94,96.92 415.64,96.39 417.33,95.90 419.02,95.44 420.71,95.01 422.41,94.61 424.10,94.24 425.79,93.89 427.49,93.57 429.18,93.27 430.87,92.99 432.56,92.73 434.26,92.48 435.95,92.26 437.64,92.05 439.34,91.86 441.03,91.68 442.72,91.51 444.41,91.35 446.11,91.21 447.80,91.07 449.49,90.95 451.18,90.83 452.88,90.72 454.57,90.62 456.26,90.53 457.96,90.44 459.65,90.36 461.34,90.29 463.03,90.22 464.73,90.16 466.42,90.10 468.11,90.04 469.81,89.99 471.50,89.94 473.19,89.90 474.88,89.86 476.58,89.82 478.27,89.79 479.96,89.75 481.66,89.72 483.35,89.69 485.04,89.67 486.73,89.64 488.43,89.62 490.12,89.60 491.81,89.58 493.50,89.56 495.20,89.55 496.89,89.53 498.58,89.52 500.28,89.50 501.97,89.49 503.66,89.48 505.35,89.47 507.05,89.46 508.74,89.45 510.43,89.44 512.13,89.43 513.82,89.43 515.51,89.42 517.20,89.41 518.90,89.41 520.59,89.40 522.28,89.40 523.97,89.39 525.67,89.39 527.36,89.38 529.05,89.38 530.75,89.38 532.44,89.37 534.13,89.37 535.82,89.37 537.52,89.37 539.21,89.36 540.90,89.36 542.60,89.36 544.29,89.36 545.98,89.36 547.67,89.35 549.37,89.35 551.06,89.35 552.75,89.35 554.45,89.35 556.14,89.35 557.83,89.35 559.52,89.35 561.22,89.34 562.91,89.34 564.60,89.34 566.29,89.34 567.99,89.34 569.68,89.34 571.37,89.34 573.07,89.34 574.76,89.34 576.45,89.34 578.14,89.34 579.84,89.34 581.53,89.34 583.22,89.34 584.92,89.34 586.61,89.34 588.30,89.34 589.99,89.34 591.69,89.34 593.38,89.34 595.07,89.34 596.76,89.34 598.46,89.34 600.15,89.34 601.84,89.34 603.54,89.34 605.23,89.33 606.92,89.33 608.61,89.33 610.31,89.33 612.00,89.33" fill="none" stroke="#2563eb" stroke-width="3" stroke-linecap="round" stroke-linejoin="round"/>
<text x="72" y="330" font-family="Arial, sans-serif" font-size="12" fill="#475569">x: -6 to 6</text>
<text x="612" y="330" text-anchor="end" font-family="Arial, sans-serif" font-size="12" fill="#475569">y: -1.2 to 1.2</text>
</svg>