<svg xmlns="http://www.w3.org/2000/svg" width="640" height="360" viewBox="0 0 640 360" role="img" aria-labelledby="title desc">
<title id="title">GELU graph</title>
<desc id="desc">Graph of GELU. smooth ReLU-like</desc>
<rect width="100%" height="100%" fill="#ffffff"/>
<rect x="14" y="14" width="612" height="332" rx="14" fill="#f8fafc" stroke="#cbd5e1"/>
<text x="32" y="42" font-family="Arial, sans-serif" font-size="22" font-weight="700" fill="#0f172a">GELU</text>
<text x="32" y="63" font-family="Arial, sans-serif" font-size="13" fill="#475569">smooth ReLU-like</text>
<line x1="72" y1="302.00" x2="612" y2="302.00" stroke="#e2e8f0" stroke-width="1"/>
<line x1="72" y1="186.00" x2="612" y2="186.00" stroke="#e2e8f0" stroke-width="1"/>
<line x1="72" y1="268.86" x2="612" y2="268.86" stroke="#e2e8f0" stroke-width="1"/>
<line x1="72" y1="70.00" x2="612" y2="70.00" stroke="#e2e8f0" stroke-width="1"/>
<line x1="72.00" y1="70" x2="72.00" y2="302" stroke="#e2e8f0" stroke-width="1"/>
<line x1="207.00" y1="70" x2="207.00" y2="302" stroke="#e2e8f0" stroke-width="1"/>
<line x1="342.00" y1="70" x2="342.00" y2="302" stroke="#e2e8f0" stroke-width="1"/>
<line x1="477.00" y1="70" x2="477.00" y2="302" stroke="#e2e8f0" stroke-width="1"/>
<line x1="612.00" y1="70" x2="612.00" y2="302" stroke="#e2e8f0" stroke-width="1"/>
<line x1="72" y1="268.86" x2="612" y2="268.86" stroke="#64748b" stroke-width="1.4"/>
<line x1="342.00" y1="70" x2="342.00" y2="302" stroke="#64748b" stroke-width="1.4"/>
<polyline points="72.00,268.86 73.69,268.86 75.39,268.86 77.08,268.86 78.77,268.86 80.46,268.86 82.16,268.86 83.85,268.86 85.54,268.86 87.24,268.86 88.93,268.86 90.62,268.86 92.31,268.86 94.01,268.86 95.70,268.86 97.39,268.86 99.08,268.86 100.78,268.86 102.47,268.86 104.16,268.86 105.86,268.86 107.55,268.86 109.24,268.86 110.93,268.86 112.63,268.86 114.32,268.86 116.01,268.86 117.71,268.86 119.40,268.86 121.09,268.86 122.78,268.86 124.48,268.86 126.17,268.86 127.86,268.86 129.55,268.86 131.25,268.86 132.94,268.86 134.63,268.86 136.33,268.86 138.02,268.86 139.71,268.86 141.40,268.86 143.10,268.86 144.79,268.86 146.48,268.86 148.18,268.86 149.87,268.86 151.56,268.86 153.25,268.86 154.95,268.86 156.64,268.86 158.33,268.86 160.03,268.86 161.72,268.86 163.41,268.86 165.10,268.86 166.80,268.86 168.49,268.86 170.18,268.86 171.87,268.86 173.57,268.86 175.26,268.87 176.95,268.87 178.65,268.87 180.34,268.87 182.03,268.87 183.72,268.88 185.42,268.88 187.11,268.88 188.80,268.89 190.50,268.89 192.19,268.90 193.88,268.90 195.57,268.91 197.27,268.92 198.96,268.92 200.65,268.93 202.34,268.94 204.04,268.95 205.73,268.97 207.42,268.98 209.12,269.00 210.81,269.01 212.50,269.03 214.19,269.05 215.89,269.08 217.58,269.10 219.27,269.13 220.97,269.16 222.66,269.19 224.35,269.23 226.04,269.27 227.74,269.31 229.43,269.36 231.12,269.40 232.82,269.46 234.51,269.51 236.20,269.57 237.89,269.64 239.59,269.71 241.28,269.78 242.97,269.86 244.66,269.94 246.36,270.03 248.05,270.13 249.74,270.22 251.44,270.33 253.13,270.43 254.82,270.55 256.51,270.67 258.21,270.79 259.90,270.92 261.59,271.05 263.29,271.19 264.98,271.33 266.67,271.47 268.36,271.62 270.06,271.77 271.75,271.93 273.44,272.09 275.13,272.25 276.83,272.41 278.52,272.57 280.21,272.73 281.91,272.89 283.60,273.04 285.29,273.20 286.98,273.35 288.68,273.50 290.37,273.64 292.06,273.78 293.76,273.90 295.45,274.02 297.14,274.13 298.83,274.23 300.53,274.31 302.22,274.38 303.91,274.43 305.61,274.47 307.30,274.49 308.99,274.49 310.68,274.47 312.38,274.43 314.07,274.36 315.76,274.27 317.45,274.15 319.15,274.00 320.84,273.83 322.53,273.63 324.23,273.39 325.92,273.13 327.61,272.83 329.30,272.49 331.00,272.13 332.69,271.72 334.38,271.29 336.08,270.81 337.77,270.30 339.46,269.75 341.15,269.16 342.85,268.54 344.54,267.88 346.23,267.18 347.92,266.45 349.62,265.67 351.31,264.87 353.00,264.02 354.70,263.14 356.39,262.23 358.08,261.28 359.77,260.30 361.47,259.29 363.16,258.25 364.85,257.17 366.55,256.07 368.24,254.94 369.93,253.79 371.62,252.61 373.32,251.40 375.01,250.18 376.70,248.93 378.39,247.67 380.09,246.38 381.78,245.08 383.47,243.76 385.17,242.43 386.86,241.09 388.55,239.74 390.24,238.37 391.94,237.00 393.63,235.61 395.32,234.23 397.02,232.83 398.71,231.43 400.40,230.03 402.09,228.63 403.79,227.22 405.48,225.81 407.17,224.41 408.87,223.00 410.56,221.59 412.25,220.19 413.94,218.79 415.64,217.39 417.33,215.99 419.02,214.60 420.71,213.21 422.41,211.83 424.10,210.45 425.79,209.07 427.49,207.71 429.18,206.34 430.87,204.98 432.56,203.63 434.26,202.28 435.95,200.93 437.64,199.59 439.34,198.26 441.03,196.93 442.72,195.60 444.41,194.28 446.11,192.96 447.80,191.65 449.49,190.34 451.18,189.04 452.88,187.74 454.57,186.45 456.26,185.15 457.96,183.87 459.65,182.58 461.34,181.30 463.03,180.02 464.73,178.74 466.42,177.47 468.11,176.19 469.81,174.92 471.50,173.66 473.19,172.39 474.88,171.13 476.58,169.86 478.27,168.60 479.96,167.34 481.66,166.09 483.35,164.83 485.04,163.57 486.73,162.32 488.43,161.06 490.12,159.81 491.81,158.56 493.50,157.31 495.20,156.06 496.89,154.80 498.58,153.55 500.28,152.30 501.97,151.06 503.66,149.81 505.35,148.56 507.05,147.31 508.74,146.06 510.43,144.81 512.13,143.56 513.82,142.32 515.51,141.07 517.20,139.82 518.90,138.57 520.59,137.33 522.28,136.08 523.97,134.83 525.67,133.59 527.36,132.34 529.05,131.09 530.75,129.85 532.44,128.60 534.13,127.35 535.82,126.10 537.52,124.86 539.21,123.61 540.90,122.36 542.60,121.12 544.29,119.87 545.98,118.62 547.67,117.38 549.37,116.13 551.06,114.88 552.75,113.64 554.45,112.39 556.14,111.14 557.83,109.90 559.52,108.65 561.22,107.40 562.91,106.16 564.60,104.91 566.29,103.66 567.99,102.42 569.68,101.17 571.37,99.92 573.07,98.68 574.76,97.43 576.45,96.18 578.14,94.94 579.84,93.69 581.53,92.44 583.22,91.19 584.92,89.95 586.61,88.70 588.30,87.45 589.99,86.21 591.69,84.96 593.38,83.71 595.07,82.47 596.76,81.22 598.46,79.97 600.15,78.73 601.84,77.48 603.54,76.23 605.23,74.99 606.92,73.74 608.61,72.49 610.31,71.25 612.00,70.00" fill="none" stroke="#2563eb" stroke-width="3" stroke-linecap="round" stroke-linejoin="round"/>
<text x="72" y="330" font-family="Arial, sans-serif" font-size="12" fill="#475569">x: -6 to 6</text>
<text x="612" y="330" text-anchor="end" font-family="Arial, sans-serif" font-size="12" fill="#475569">y: -1 to 6</text>
</svg>