<svg xmlns="http://www.w3.org/2000/svg" width="640" height="360" viewBox="0 0 640 360" role="img" aria-labelledby="title desc">
<title id="title">Leaky ReLU graph</title>
<desc id="desc">Graph of Leaky ReLU. alpha = 0.1</desc>
<rect width="100%" height="100%" fill="#ffffff"/>
<rect x="14" y="14" width="612" height="332" rx="14" fill="#f8fafc" stroke="#cbd5e1"/>
<text x="32" y="42" font-family="Arial, sans-serif" font-size="22" font-weight="700" fill="#0f172a">Leaky ReLU</text>
<text x="32" y="63" font-family="Arial, sans-serif" font-size="13" fill="#475569">alpha = 0.1</text>
<line x1="72" y1="302.00" x2="612" y2="302.00" stroke="#e2e8f0" stroke-width="1"/>
<line x1="72" y1="186.00" x2="612" y2="186.00" stroke="#e2e8f0" stroke-width="1"/>
<line x1="72" y1="268.86" x2="612" y2="268.86" stroke="#e2e8f0" stroke-width="1"/>
<line x1="72" y1="70.00" x2="612" y2="70.00" stroke="#e2e8f0" stroke-width="1"/>
<line x1="72.00" y1="70" x2="72.00" y2="302" stroke="#e2e8f0" stroke-width="1"/>
<line x1="207.00" y1="70" x2="207.00" y2="302" stroke="#e2e8f0" stroke-width="1"/>
<line x1="342.00" y1="70" x2="342.00" y2="302" stroke="#e2e8f0" stroke-width="1"/>
<line x1="477.00" y1="70" x2="477.00" y2="302" stroke="#e2e8f0" stroke-width="1"/>
<line x1="612.00" y1="70" x2="612.00" y2="302" stroke="#e2e8f0" stroke-width="1"/>
<line x1="72" y1="268.86" x2="612" y2="268.86" stroke="#64748b" stroke-width="1.4"/>
<line x1="342.00" y1="70" x2="342.00" y2="302" stroke="#64748b" stroke-width="1.4"/>
<polyline points="72.00,288.74 73.69,288.62 75.39,288.49 77.08,288.37 78.77,288.24 80.46,288.12 82.16,287.99 83.85,287.87 85.54,287.75 87.24,287.62 88.93,287.50 90.62,287.37 92.31,287.25 94.01,287.12 95.70,287.00 97.39,286.87 99.08,286.75 100.78,286.62 102.47,286.50 104.16,286.37 105.86,286.25 107.55,286.12 109.24,286.00 110.93,285.88 112.63,285.75 114.32,285.63 116.01,285.50 117.71,285.38 119.40,285.25 121.09,285.13 122.78,285.00 124.48,284.88 126.17,284.75 127.86,284.63 129.55,284.50 131.25,284.38 132.94,284.25 134.63,284.13 136.33,284.01 138.02,283.88 139.71,283.76 141.40,283.63 143.10,283.51 144.79,283.38 146.48,283.26 148.18,283.13 149.87,283.01 151.56,282.88 153.25,282.76 154.95,282.63 156.64,282.51 158.33,282.38 160.03,282.26 161.72,282.14 163.41,282.01 165.10,281.89 166.80,281.76 168.49,281.64 170.18,281.51 171.87,281.39 173.57,281.26 175.26,281.14 176.95,281.01 178.65,280.89 180.34,280.76 182.03,280.64 183.72,280.51 185.42,280.39 187.11,280.26 188.80,280.14 190.50,280.02 192.19,279.89 193.88,279.77 195.57,279.64 197.27,279.52 198.96,279.39 200.65,279.27 202.34,279.14 204.04,279.02 205.73,278.89 207.42,278.77 209.12,278.64 210.81,278.52 212.50,278.39 214.19,278.27 215.89,278.15 217.58,278.02 219.27,277.90 220.97,277.77 222.66,277.65 224.35,277.52 226.04,277.40 227.74,277.27 229.43,277.15 231.12,277.02 232.82,276.90 234.51,276.77 236.20,276.65 237.89,276.52 239.59,276.40 241.28,276.28 242.97,276.15 244.66,276.03 246.36,275.90 248.05,275.78 249.74,275.65 251.44,275.53 253.13,275.40 254.82,275.28 256.51,275.15 258.21,275.03 259.90,274.90 261.59,274.78 263.29,274.65 264.98,274.53 266.67,274.41 268.36,274.28 270.06,274.16 271.75,274.03 273.44,273.91 275.13,273.78 276.83,273.66 278.52,273.53 280.21,273.41 281.91,273.28 283.60,273.16 285.29,273.03 286.98,272.91 288.68,272.78 290.37,272.66 292.06,272.54 293.76,272.41 295.45,272.29 297.14,272.16 298.83,272.04 300.53,271.91 302.22,271.79 303.91,271.66 305.61,271.54 307.30,271.41 308.99,271.29 310.68,271.16 312.38,271.04 314.07,270.91 315.76,270.79 317.45,270.66 319.15,270.54 320.84,270.42 322.53,270.29 324.23,270.17 325.92,270.04 327.61,269.92 329.30,269.79 331.00,269.67 332.69,269.54 334.38,269.42 336.08,269.29 337.77,269.17 339.46,269.04 341.15,268.92 342.85,268.23 344.54,266.99 346.23,265.74 347.92,264.49 349.62,263.25 351.31,262.00 353.00,260.75 354.70,259.51 356.39,258.26 358.08,257.01 359.77,255.77 361.47,254.52 363.16,253.27 364.85,252.03 366.55,250.78 368.24,249.53 369.93,248.29 371.62,247.04 373.32,245.79 375.01,244.55 376.70,243.30 378.39,242.05 380.09,240.81 381.78,239.56 383.47,238.31 385.17,237.06 386.86,235.82 388.55,234.57 390.24,233.32 391.94,232.08 393.63,230.83 395.32,229.58 397.02,228.34 398.71,227.09 400.40,225.84 402.09,224.60 403.79,223.35 405.48,222.10 407.17,220.86 408.87,219.61 410.56,218.36 412.25,217.12 413.94,215.87 415.64,214.62 417.33,213.38 419.02,212.13 420.71,210.88 422.41,209.64 424.10,208.39 425.79,207.14 427.49,205.90 429.18,204.65 430.87,203.40 432.56,202.16 434.26,200.91 435.95,199.66 437.64,198.42 439.34,197.17 441.03,195.92 442.72,194.68 444.41,193.43 446.11,192.18 447.80,190.94 449.49,189.69 451.18,188.44 452.88,187.19 454.57,185.95 456.26,184.70 457.96,183.45 459.65,182.21 461.34,180.96 463.03,179.71 464.73,178.47 466.42,177.22 468.11,175.97 469.81,174.73 471.50,173.48 473.19,172.23 474.88,170.99 476.58,169.74 478.27,168.49 479.96,167.25 481.66,166.00 483.35,164.75 485.04,163.51 486.73,162.26 488.43,161.01 490.12,159.77 491.81,158.52 493.50,157.27 495.20,156.03 496.89,154.78 498.58,153.53 500.28,152.29 501.97,151.04 503.66,149.79 505.35,148.55 507.05,147.30 508.74,146.05 510.43,144.81 512.13,143.56 513.82,142.31 515.51,141.06 517.20,139.82 518.90,138.57 520.59,137.32 522.28,136.08 523.97,134.83 525.67,133.58 527.36,132.34 529.05,131.09 530.75,129.84 532.44,128.60 534.13,127.35 535.82,126.10 537.52,124.86 539.21,123.61 540.90,122.36 542.60,121.12 544.29,119.87 545.98,118.62 547.67,117.38 549.37,116.13 551.06,114.88 552.75,113.64 554.45,112.39 556.14,111.14 557.83,109.90 559.52,108.65 561.22,107.40 562.91,106.16 564.60,104.91 566.29,103.66 567.99,102.42 569.68,101.17 571.37,99.92 573.07,98.68 574.76,97.43 576.45,96.18 578.14,94.94 579.84,93.69 581.53,92.44 583.22,91.19 584.92,89.95 586.61,88.70 588.30,87.45 589.99,86.21 591.69,84.96 593.38,83.71 595.07,82.47 596.76,81.22 598.46,79.97 600.15,78.73 601.84,77.48 603.54,76.23 605.23,74.99 606.92,73.74 608.61,72.49 610.31,71.25 612.00,70.00" fill="none" stroke="#2563eb" stroke-width="3" stroke-linecap="round" stroke-linejoin="round"/>
<text x="72" y="330" font-family="Arial, sans-serif" font-size="12" fill="#475569">x: -6 to 6</text>
<text x="612" y="330" text-anchor="end" font-family="Arial, sans-serif" font-size="12" fill="#475569">y: -1 to 6</text>
</svg>