<svg xmlns="http://www.w3.org/2000/svg" width="640" height="360" viewBox="0 0 640 360" role="img" aria-labelledby="title desc">
<title id="title">ReLU graph</title>
<desc id="desc">Graph of ReLU. y = max(0, x)</desc>
<rect width="100%" height="100%" fill="#ffffff"/>
<rect x="14" y="14" width="612" height="332" rx="14" fill="#f8fafc" stroke="#cbd5e1"/>
<text x="32" y="42" font-family="Arial, sans-serif" font-size="22" font-weight="700" fill="#0f172a">ReLU</text>
<text x="32" y="63" font-family="Arial, sans-serif" font-size="13" fill="#475569">y = max(0, x)</text>
<line x1="72" y1="302.00" x2="612" y2="302.00" stroke="#e2e8f0" stroke-width="1"/>
<line x1="72" y1="186.00" x2="612" y2="186.00" stroke="#e2e8f0" stroke-width="1"/>
<line x1="72" y1="268.86" x2="612" y2="268.86" stroke="#e2e8f0" stroke-width="1"/>
<line x1="72" y1="70.00" x2="612" y2="70.00" stroke="#e2e8f0" stroke-width="1"/>
<line x1="72.00" y1="70" x2="72.00" y2="302" stroke="#e2e8f0" stroke-width="1"/>
<line x1="207.00" y1="70" x2="207.00" y2="302" stroke="#e2e8f0" stroke-width="1"/>
<line x1="342.00" y1="70" x2="342.00" y2="302" stroke="#e2e8f0" stroke-width="1"/>
<line x1="477.00" y1="70" x2="477.00" y2="302" stroke="#e2e8f0" stroke-width="1"/>
<line x1="612.00" y1="70" x2="612.00" y2="302" stroke="#e2e8f0" stroke-width="1"/>
<line x1="72" y1="268.86" x2="612" y2="268.86" stroke="#64748b" stroke-width="1.4"/>
<line x1="342.00" y1="70" x2="342.00" y2="302" stroke="#64748b" stroke-width="1.4"/>
<polyline points="72.00,268.86 73.69,268.86 75.39,268.86 77.08,268.86 78.77,268.86 80.46,268.86 82.16,268.86 83.85,268.86 85.54,268.86 87.24,268.86 88.93,268.86 90.62,268.86 92.31,268.86 94.01,268.86 95.70,268.86 97.39,268.86 99.08,268.86 100.78,268.86 102.47,268.86 104.16,268.86 105.86,268.86 107.55,268.86 109.24,268.86 110.93,268.86 112.63,268.86 114.32,268.86 116.01,268.86 117.71,268.86 119.40,268.86 121.09,268.86 122.78,268.86 124.48,268.86 126.17,268.86 127.86,268.86 129.55,268.86 131.25,268.86 132.94,268.86 134.63,268.86 136.33,268.86 138.02,268.86 139.71,268.86 141.40,268.86 143.10,268.86 144.79,268.86 146.48,268.86 148.18,268.86 149.87,268.86 151.56,268.86 153.25,268.86 154.95,268.86 156.64,268.86 158.33,268.86 160.03,268.86 161.72,268.86 163.41,268.86 165.10,268.86 166.80,268.86 168.49,268.86 170.18,268.86 171.87,268.86 173.57,268.86 175.26,268.86 176.95,268.86 178.65,268.86 180.34,268.86 182.03,268.86 183.72,268.86 185.42,268.86 187.11,268.86 188.80,268.86 190.50,268.86 192.19,268.86 193.88,268.86 195.57,268.86 197.27,268.86 198.96,268.86 200.65,268.86 202.34,268.86 204.04,268.86 205.73,268.86 207.42,268.86 209.12,268.86 210.81,268.86 212.50,268.86 214.19,268.86 215.89,268.86 217.58,268.86 219.27,268.86 220.97,268.86 222.66,268.86 224.35,268.86 226.04,268.86 227.74,268.86 229.43,268.86 231.12,268.86 232.82,268.86 234.51,268.86 236.20,268.86 237.89,268.86 239.59,268.86 241.28,268.86 242.97,268.86 244.66,268.86 246.36,268.86 248.05,268.86 249.74,268.86 251.44,268.86 253.13,268.86 254.82,268.86 256.51,268.86 258.21,268.86 259.90,268.86 261.59,268.86 263.29,268.86 264.98,268.86 266.67,268.86 268.36,268.86 270.06,268.86 271.75,268.86 273.44,268.86 275.13,268.86 276.83,268.86 278.52,268.86 280.21,268.86 281.91,268.86 283.60,268.86 285.29,268.86 286.98,268.86 288.68,268.86 290.37,268.86 292.06,268.86 293.76,268.86 295.45,268.86 297.14,268.86 298.83,268.86 300.53,268.86 302.22,268.86 303.91,268.86 305.61,268.86 307.30,268.86 308.99,268.86 310.68,268.86 312.38,268.86 314.07,268.86 315.76,268.86 317.45,268.86 319.15,268.86 320.84,268.86 322.53,268.86 324.23,268.86 325.92,268.86 327.61,268.86 329.30,268.86 331.00,268.86 332.69,268.86 334.38,268.86 336.08,268.86 337.77,268.86 339.46,268.86 341.15,268.86 342.85,268.23 344.54,266.99 346.23,265.74 347.92,264.49 349.62,263.25 351.31,262.00 353.00,260.75 354.70,259.51 356.39,258.26 358.08,257.01 359.77,255.77 361.47,254.52 363.16,253.27 364.85,252.03 366.55,250.78 368.24,249.53 369.93,248.29 371.62,247.04 373.32,245.79 375.01,244.55 376.70,243.30 378.39,242.05 380.09,240.81 381.78,239.56 383.47,238.31 385.17,237.06 386.86,235.82 388.55,234.57 390.24,233.32 391.94,232.08 393.63,230.83 395.32,229.58 397.02,228.34 398.71,227.09 400.40,225.84 402.09,224.60 403.79,223.35 405.48,222.10 407.17,220.86 408.87,219.61 410.56,218.36 412.25,217.12 413.94,215.87 415.64,214.62 417.33,213.38 419.02,212.13 420.71,210.88 422.41,209.64 424.10,208.39 425.79,207.14 427.49,205.90 429.18,204.65 430.87,203.40 432.56,202.16 434.26,200.91 435.95,199.66 437.64,198.42 439.34,197.17 441.03,195.92 442.72,194.68 444.41,193.43 446.11,192.18 447.80,190.94 449.49,189.69 451.18,188.44 452.88,187.19 454.57,185.95 456.26,184.70 457.96,183.45 459.65,182.21 461.34,180.96 463.03,179.71 464.73,178.47 466.42,177.22 468.11,175.97 469.81,174.73 471.50,173.48 473.19,172.23 474.88,170.99 476.58,169.74 478.27,168.49 479.96,167.25 481.66,166.00 483.35,164.75 485.04,163.51 486.73,162.26 488.43,161.01 490.12,159.77 491.81,158.52 493.50,157.27 495.20,156.03 496.89,154.78 498.58,153.53 500.28,152.29 501.97,151.04 503.66,149.79 505.35,148.55 507.05,147.30 508.74,146.05 510.43,144.81 512.13,143.56 513.82,142.31 515.51,141.06 517.20,139.82 518.90,138.57 520.59,137.32 522.28,136.08 523.97,134.83 525.67,133.58 527.36,132.34 529.05,131.09 530.75,129.84 532.44,128.60 534.13,127.35 535.82,126.10 537.52,124.86 539.21,123.61 540.90,122.36 542.60,121.12 544.29,119.87 545.98,118.62 547.67,117.38 549.37,116.13 551.06,114.88 552.75,113.64 554.45,112.39 556.14,111.14 557.83,109.90 559.52,108.65 561.22,107.40 562.91,106.16 564.60,104.91 566.29,103.66 567.99,102.42 569.68,101.17 571.37,99.92 573.07,98.68 574.76,97.43 576.45,96.18 578.14,94.94 579.84,93.69 581.53,92.44 583.22,91.19 584.92,89.95 586.61,88.70 588.30,87.45 589.99,86.21 591.69,84.96 593.38,83.71 595.07,82.47 596.76,81.22 598.46,79.97 600.15,78.73 601.84,77.48 603.54,76.23 605.23,74.99 606.92,73.74 608.61,72.49 610.31,71.25 612.00,70.00" fill="none" stroke="#2563eb" stroke-width="3" stroke-linecap="round" stroke-linejoin="round"/>
<text x="72" y="330" font-family="Arial, sans-serif" font-size="12" fill="#475569">x: -6 to 6</text>
<text x="612" y="330" text-anchor="end" font-family="Arial, sans-serif" font-size="12" fill="#475569">y: -1 to 6</text>
</svg>