<svg xmlns="http://www.w3.org/2000/svg" width="640" height="360" viewBox="0 0 640 360" role="img" aria-labelledby="title desc">
<title id="title">Sigmoid graph</title>
<desc id="desc">Graph of Sigmoid. y = 1 / (1 + exp(-x))</desc>
<rect width="100%" height="100%" fill="#ffffff"/>
<rect x="14" y="14" width="612" height="332" rx="14" fill="#f8fafc" stroke="#cbd5e1"/>
<text x="32" y="42" font-family="Arial, sans-serif" font-size="22" font-weight="700" fill="#0f172a">Sigmoid</text>
<text x="32" y="63" font-family="Arial, sans-serif" font-size="13" fill="#475569">y = 1 / (1 + exp(-x))</text>
<line x1="72" y1="302.00" x2="612" y2="302.00" stroke="#e2e8f0" stroke-width="1"/>
<line x1="72" y1="186.00" x2="612" y2="186.00" stroke="#e2e8f0" stroke-width="1"/>
<line x1="72" y1="268.86" x2="612" y2="268.86" stroke="#e2e8f0" stroke-width="1"/>
<line x1="72" y1="70.00" x2="612" y2="70.00" stroke="#e2e8f0" stroke-width="1"/>
<line x1="72.00" y1="70" x2="72.00" y2="302" stroke="#e2e8f0" stroke-width="1"/>
<line x1="207.00" y1="70" x2="207.00" y2="302" stroke="#e2e8f0" stroke-width="1"/>
<line x1="342.00" y1="70" x2="342.00" y2="302" stroke="#e2e8f0" stroke-width="1"/>
<line x1="477.00" y1="70" x2="477.00" y2="302" stroke="#e2e8f0" stroke-width="1"/>
<line x1="612.00" y1="70" x2="612.00" y2="302" stroke="#e2e8f0" stroke-width="1"/>
<line x1="72" y1="268.86" x2="612" y2="268.86" stroke="#64748b" stroke-width="1.4"/>
<line x1="342.00" y1="70" x2="342.00" y2="302" stroke="#64748b" stroke-width="1.4"/>
<polyline points="72.00,268.45 73.69,268.43 75.39,268.42 77.08,268.40 78.77,268.38 80.46,268.36 82.16,268.34 83.85,268.32 85.54,268.30 87.24,268.28 88.93,268.26 90.62,268.24 92.31,268.21 94.01,268.19 95.70,268.16 97.39,268.14 99.08,268.11 100.78,268.08 102.47,268.05 104.16,268.02 105.86,267.99 107.55,267.96 109.24,267.92 110.93,267.89 112.63,267.85 114.32,267.81 116.01,267.77 117.71,267.73 119.40,267.69 121.09,267.64 122.78,267.60 124.48,267.55 126.17,267.50 127.86,267.45 129.55,267.39 131.25,267.34 132.94,267.28 134.63,267.22 136.33,267.16 138.02,267.09 139.71,267.03 141.40,266.96 143.10,266.89 144.79,266.81 146.48,266.73 148.18,266.65 149.87,266.57 151.56,266.48 153.25,266.40 154.95,266.30 156.64,266.21 158.33,266.11 160.03,266.00 161.72,265.89 163.41,265.78 165.10,265.67 166.80,265.55 168.49,265.42 170.18,265.30 171.87,265.16 173.57,265.02 175.26,264.88 176.95,264.73 178.65,264.58 180.34,264.42 182.03,264.25 183.72,264.08 185.42,263.90 187.11,263.72 188.80,263.53 190.50,263.33 192.19,263.13 193.88,262.91 195.57,262.69 197.27,262.47 198.96,262.23 200.65,261.99 202.34,261.74 204.04,261.48 205.73,261.21 207.42,260.93 209.12,260.64 210.81,260.34 212.50,260.03 214.19,259.71 215.89,259.38 217.58,259.04 219.27,258.69 220.97,258.32 222.66,257.94 224.35,257.55 226.04,257.15 227.74,256.73 229.43,256.30 231.12,255.86 232.82,255.40 234.51,254.93 236.20,254.44 237.89,253.94 239.59,253.42 241.28,252.89 242.97,252.34 244.66,251.77 246.36,251.18 248.05,250.58 249.74,249.96 251.44,249.32 253.13,248.66 254.82,247.99 256.51,247.29 258.21,246.57 259.90,245.84 261.59,245.08 263.29,244.31 264.98,243.51 266.67,242.69 268.36,241.85 270.06,240.99 271.75,240.11 273.44,239.20 275.13,238.28 276.83,237.33 278.52,236.36 280.21,235.36 281.91,234.34 283.60,233.31 285.29,232.24 286.98,231.16 288.68,230.05 290.37,228.92 292.06,227.77 293.76,226.60 295.45,225.40 297.14,224.19 298.83,222.95 300.53,221.69 302.22,220.41 303.91,219.11 305.61,217.79 307.30,216.45 308.99,215.10 310.68,213.72 312.38,212.33 314.07,210.92 315.76,209.49 317.45,208.05 319.15,206.60 320.84,205.13 322.53,203.65 324.23,202.15 325.92,200.65 327.61,199.14 329.30,197.61 331.00,196.08 332.69,194.54 334.38,193.00 336.08,191.45 337.77,189.89 339.46,188.34 341.15,186.78 342.85,185.22 344.54,183.66 346.23,182.11 347.92,180.55 349.62,179.00 351.31,177.46 353.00,175.92 354.70,174.39 356.39,172.86 358.08,171.35 359.77,169.85 361.47,168.35 363.16,166.87 364.85,165.40 366.55,163.95 368.24,162.51 369.93,161.08 371.62,159.67 373.32,158.28 375.01,156.90 376.70,155.55 378.39,154.21 380.09,152.89 381.78,151.59 383.47,150.31 385.17,149.05 386.86,147.81 388.55,146.60 390.24,145.40 391.94,144.23 393.63,143.08 395.32,141.95 397.02,140.84 398.71,139.76 400.40,138.69 402.09,137.66 403.79,136.64 405.48,135.64 407.17,134.67 408.87,133.72 410.56,132.80 412.25,131.89 413.94,131.01 415.64,130.15 417.33,129.31 419.02,128.49 420.71,127.69 422.41,126.92 424.10,126.16 425.79,125.43 427.49,124.71 429.18,124.01 430.87,123.34 432.56,122.68 434.26,122.04 435.95,121.42 437.64,120.82 439.34,120.23 441.03,119.66 442.72,119.11 444.41,118.58 446.11,118.06 447.80,117.56 449.49,117.07 451.18,116.60 452.88,116.14 454.57,115.70 456.26,115.27 457.96,114.85 459.65,114.45 461.34,114.06 463.03,113.68 464.73,113.31 466.42,112.96 468.11,112.62 469.81,112.29 471.50,111.97 473.19,111.66 474.88,111.36 476.58,111.07 478.27,110.79 479.96,110.52 481.66,110.26 483.35,110.01 485.04,109.77 486.73,109.53 488.43,109.31 490.12,109.09 491.81,108.87 493.50,108.67 495.20,108.47 496.89,108.28 498.58,108.10 500.28,107.92 501.97,107.75 503.66,107.58 505.35,107.42 507.05,107.27 508.74,107.12 510.43,106.98 512.13,106.84 513.82,106.70 515.51,106.58 517.20,106.45 518.90,106.33 520.59,106.22 522.28,106.11 523.97,106.00 525.67,105.89 527.36,105.79 529.05,105.70 530.75,105.60 532.44,105.52 534.13,105.43 535.82,105.35 537.52,105.27 539.21,105.19 540.90,105.11 542.60,105.04 544.29,104.97 545.98,104.91 547.67,104.84 549.37,104.78 551.06,104.72 552.75,104.66 554.45,104.61 556.14,104.55 557.83,104.50 559.52,104.45 561.22,104.40 562.91,104.36 564.60,104.31 566.29,104.27 567.99,104.23 569.68,104.19 571.37,104.15 573.07,104.11 574.76,104.08 576.45,104.04 578.14,104.01 579.84,103.98 581.53,103.95 583.22,103.92 584.92,103.89 586.61,103.86 588.30,103.84 589.99,103.81 591.69,103.79 593.38,103.76 595.07,103.74 596.76,103.72 598.46,103.70 600.15,103.68 601.84,103.66 603.54,103.64 605.23,103.62 606.92,103.60 608.61,103.58 610.31,103.57 612.00,103.55" fill="none" stroke="#2563eb" stroke-width="3" stroke-linecap="round" stroke-linejoin="round"/>
<text x="72" y="330" font-family="Arial, sans-serif" font-size="12" fill="#475569">x: -6 to 6</text>
<text x="612" y="330" text-anchor="end" font-family="Arial, sans-serif" font-size="12" fill="#475569">y: -0.2 to 1.2</text>
</svg>