<svg xmlns="http://www.w3.org/2000/svg" width="640" height="360" viewBox="0 0 640 360" role="img" aria-labelledby="title desc">
<title id="title">Softmax probability graph</title>
<desc id="desc">Graph of Softmax probability. P(class 0) for logits [x, 0, -1]</desc>
<rect width="100%" height="100%" fill="#ffffff"/>
<rect x="14" y="14" width="612" height="332" rx="14" fill="#f8fafc" stroke="#cbd5e1"/>
<text x="32" y="42" font-family="Arial, sans-serif" font-size="22" font-weight="700" fill="#0f172a">Softmax probability</text>
<text x="32" y="63" font-family="Arial, sans-serif" font-size="13" fill="#475569">P(class 0) for logits [x, 0, -1]</text>
<line x1="72" y1="302.00" x2="612" y2="302.00" stroke="#e2e8f0" stroke-width="1"/>
<line x1="72" y1="186.00" x2="612" y2="186.00" stroke="#e2e8f0" stroke-width="1"/>
<line x1="72" y1="268.86" x2="612" y2="268.86" stroke="#e2e8f0" stroke-width="1"/>
<line x1="72" y1="70.00" x2="612" y2="70.00" stroke="#e2e8f0" stroke-width="1"/>
<line x1="72.00" y1="70" x2="72.00" y2="302" stroke="#e2e8f0" stroke-width="1"/>
<line x1="207.00" y1="70" x2="207.00" y2="302" stroke="#e2e8f0" stroke-width="1"/>
<line x1="342.00" y1="70" x2="342.00" y2="302" stroke="#e2e8f0" stroke-width="1"/>
<line x1="477.00" y1="70" x2="477.00" y2="302" stroke="#e2e8f0" stroke-width="1"/>
<line x1="612.00" y1="70" x2="612.00" y2="302" stroke="#e2e8f0" stroke-width="1"/>
<line x1="72" y1="268.86" x2="612" y2="268.86" stroke="#64748b" stroke-width="1.4"/>
<line x1="342.00" y1="70" x2="342.00" y2="302" stroke="#64748b" stroke-width="1.4"/>
<polyline points="72.00,268.56 73.69,268.55 75.39,268.53 77.08,268.52 78.77,268.51 80.46,268.50 82.16,268.48 83.85,268.47 85.54,268.45 87.24,268.44 88.93,268.42 90.62,268.40 92.31,268.39 94.01,268.37 95.70,268.35 97.39,268.33 99.08,268.31 100.78,268.29 102.47,268.27 104.16,268.25 105.86,268.22 107.55,268.20 109.24,268.17 110.93,268.15 112.63,268.12 114.32,268.09 116.01,268.06 117.71,268.03 119.40,268.00 121.09,267.97 122.78,267.93 124.48,267.90 126.17,267.86 127.86,267.82 129.55,267.79 131.25,267.74 132.94,267.70 134.63,267.66 136.33,267.61 138.02,267.57 139.71,267.52 141.40,267.46 143.10,267.41 144.79,267.36 146.48,267.30 148.18,267.24 149.87,267.18 151.56,267.12 153.25,267.05 154.95,266.98 156.64,266.91 158.33,266.84 160.03,266.76 161.72,266.68 163.41,266.60 165.10,266.51 166.80,266.42 168.49,266.33 170.18,266.24 171.87,266.14 173.57,266.04 175.26,265.93 176.95,265.82 178.65,265.71 180.34,265.59 182.03,265.46 183.72,265.34 185.42,265.21 187.11,265.07 188.80,264.93 190.50,264.78 192.19,264.63 193.88,264.47 195.57,264.31 197.27,264.14 198.96,263.96 200.65,263.78 202.34,263.59 204.04,263.40 205.73,263.19 207.42,262.98 209.12,262.77 210.81,262.54 212.50,262.31 214.19,262.07 215.89,261.82 217.58,261.56 219.27,261.30 220.97,261.02 222.66,260.73 224.35,260.44 226.04,260.13 227.74,259.82 229.43,259.49 231.12,259.15 232.82,258.80 234.51,258.44 236.20,258.07 237.89,257.68 239.59,257.28 241.28,256.87 242.97,256.45 244.66,256.01 246.36,255.55 248.05,255.09 249.74,254.60 251.44,254.11 253.13,253.59 254.82,253.06 256.51,252.52 258.21,251.96 259.90,251.38 261.59,250.78 263.29,250.16 264.98,249.53 266.67,248.88 268.36,248.21 270.06,247.52 271.75,246.81 273.44,246.08 275.13,245.33 276.83,244.56 278.52,243.77 280.21,242.96 281.91,242.13 283.60,241.28 285.29,240.40 286.98,239.50 288.68,238.58 290.37,237.64 292.06,236.68 293.76,235.69 295.45,234.68 297.14,233.65 298.83,232.59 300.53,231.52 302.22,230.42 303.91,229.30 305.61,228.15 307.30,226.99 308.99,225.80 310.68,224.59 312.38,223.36 314.07,222.11 315.76,220.83 317.45,219.54 319.15,218.23 320.84,216.89 322.53,215.54 324.23,214.17 325.92,212.79 327.61,211.38 329.30,209.96 331.00,208.53 332.69,207.08 334.38,205.61 336.08,204.13 337.77,202.64 339.46,201.14 341.15,199.63 342.85,198.11 344.54,196.58 346.23,195.05 347.92,193.50 349.62,191.95 351.31,190.40 353.00,188.85 354.70,187.29 356.39,185.73 358.08,184.17 359.77,182.62 361.47,181.06 363.16,179.51 364.85,177.96 366.55,176.42 368.24,174.89 369.93,173.36 371.62,171.85 373.32,170.34 375.01,168.84 376.70,167.35 378.39,165.88 380.09,164.42 381.78,162.98 383.47,161.55 385.17,160.13 386.86,158.73 388.55,157.35 390.24,155.99 391.94,154.64 393.63,153.32 395.32,152.01 397.02,150.73 398.71,149.46 400.40,148.22 402.09,146.99 403.79,145.79 405.48,144.61 407.17,143.45 408.87,142.31 410.56,141.20 412.25,140.11 413.94,139.04 415.64,137.99 417.33,136.97 419.02,135.97 420.71,134.99 422.41,134.03 424.10,133.10 425.79,132.19 427.49,131.30 429.18,130.43 430.87,129.58 432.56,128.76 434.26,127.95 435.95,127.17 437.64,126.41 439.34,125.66 441.03,124.94 442.72,124.24 444.41,123.56 446.11,122.89 447.80,122.25 449.49,121.62 451.18,121.01 452.88,120.42 454.57,119.85 456.26,119.29 457.96,118.75 459.65,118.23 461.34,117.72 463.03,117.23 464.73,116.75 466.42,116.29 468.11,115.84 469.81,115.41 471.50,114.98 473.19,114.58 474.88,114.18 476.58,113.80 478.27,113.43 479.96,113.08 481.66,112.73 483.35,112.40 485.04,112.07 486.73,111.76 488.43,111.46 490.12,111.17 491.81,110.88 493.50,110.61 495.20,110.35 496.89,110.09 498.58,109.85 500.28,109.61 501.97,109.38 503.66,109.16 505.35,108.94 507.05,108.74 508.74,108.54 510.43,108.34 512.13,108.16 513.82,107.98 515.51,107.80 517.20,107.64 518.90,107.47 520.59,107.32 522.28,107.17 523.97,107.02 525.67,106.88 527.36,106.75 529.05,106.62 530.75,106.49 532.44,106.37 534.13,106.25 535.82,106.14 537.52,106.03 539.21,105.93 540.90,105.83 542.60,105.73 544.29,105.63 545.98,105.54 547.67,105.46 549.37,105.37 551.06,105.29 552.75,105.21 554.45,105.14 556.14,105.06 557.83,104.99 559.52,104.93 561.22,104.86 562.91,104.80 564.60,104.74 566.29,104.68 567.99,104.62 569.68,104.57 571.37,104.52 573.07,104.47 574.76,104.42 576.45,104.37 578.14,104.33 579.84,104.28 581.53,104.24 583.22,104.20 584.92,104.16 586.61,104.12 588.30,104.09 589.99,104.05 591.69,104.02 593.38,103.99 595.07,103.96 596.76,103.93 598.46,103.90 600.15,103.87 601.84,103.84 603.54,103.82 605.23,103.79 606.92,103.77 608.61,103.75 610.31,103.72 612.00,103.70" fill="none" stroke="#2563eb" stroke-width="3" stroke-linecap="round" stroke-linejoin="round"/>
<text x="72" y="330" font-family="Arial, sans-serif" font-size="12" fill="#475569">x: -6 to 6</text>
<text x="612" y="330" text-anchor="end" font-family="Arial, sans-serif" font-size="12" fill="#475569">y: -0.2 to 1.2</text>
</svg>